<svg width="16" height="16" viewBox="0 0 16 16" fill="none" xmlns="http://www.w3.org/2000/svg">
<path fill-rule="evenodd" clip-rule="evenodd" d="M14.7154 2.55325C13.5474 1.0026 11.6908 0 9.60001 0H6.39999C2.86537 0 0 2.86538 0 6.4V9.6C0 13.1346 2.86537 16 6.39999 16H9.60001C13.1346 16 16 13.1346 16 9.6V6.4C16 5.55035 15.8344 4.73938 15.5338 3.99757L8.16568 11.3657C7.85325 11.6781 7.34673 11.6781 7.0343 11.3657L3.43431 7.7657C3.12189 7.45325 3.12189 6.94675 3.43431 6.6343C3.74673 6.3219 4.25326 6.3219 4.56568 6.6343L7.59999 9.66865L14.7154 2.55325Z" fill="#228BE6"/>
</svg>
